# xmcd
#
# Track frame offsets: 
#        150
#        3405
#        20692
#        39786
#        56312
#        73828
#        91218
#        106933
#        123778
#        140291
#        157013
#        165744
#        180483
#        197844
#        212243
#        214645
#        232396
#        247026
#        261826
#        279244
#
# Disc length: 3935 seconds
#
# Revision: 0
# Processed by: cddbd v1.5.2PL0 Copyright (c) Steve Scherf et al.
# Submitted via: ExactAudioCopy v0.95b4
#
DISCID=190f5d14
DTITLE=Fort Minor - The Rising Tied
DYEAR=2005
DGENRE=Hip-Hop
TTITLE0=Introduction
TTITLE1=Remember The Name
TTITLE2=Right Now
TTITLE3=Petrified
TTITLE4=Feel Like Home
TTITLE5=Where'd You Go?
TTITLE6=In Stereo
TTITLE7=Back Home
TTITLE8=Cigarettes
TTITLE9=Believe Me
TTITLE10=Get Me Gone
TTITLE11=High Road
TTITLE12=Kenji
TTITLE13=Red To Black
TTITLE14=The Battle
TTITLE15=Slip Out The Back
TTITLE16=Be Somebody
TTITLE17=There They Go
TTITLE18=The Hard Way
TTITLE19=Petrified (Los Angeles Remix)
EXTD=
EXTT0=
EXTT1=
EXTT2=
EXTT3=
EXTT4=
EXTT5=
EXTT6=
EXTT7=
EXTT8=
EXTT9=
EXTT10=
EXTT11=
EXTT12=
EXTT13=
EXTT14=
EXTT15=
EXTT16=
EXTT17=
EXTT18=
EXTT19=
PLAYORDER=
